<?xml version="1.0" standalone="no"?><!DOCTYPE svg PUBLIC "-//W3C//DTD SVG 1.1//EN" "http://www.w3.org/Graphics/SVG/1.1/DTD/svg11.dtd"><svg t="1632488153939" class="icon" viewBox="0 0 1024 1024" version="1.1" xmlns="http://www.w3.org/2000/svg" p-id="4624" width="32" height="32" xmlns:xlink="http://www.w3.org/1999/xlink"><defs><style type="text/css"></style></defs><path d="M841.057416 841.854867c-28.554195 21.676177-103.79554 85.662584-103.79554 159.037168h-458.534513c0-72.948673-74.616071-136.735717-103.37869-158.402831 14.798159-12.931398 32.931115-25.436885 55.232566-37.516461 22.301451 11.454301 135.267681 70.864425 277.41338 70.864425s257.821451-59.826973 278.24708-71.081911c22.301451 11.880212 40.225982 24.594124 54.815717 37.09961z" fill="#8C6AAB" p-id="4625"></path><path d="M904.001699 948.785841v52.106194h-166.739823c0-73.374584 75.241345-137.360991 103.79554-159.037168h0.208425c62.527434 53.773593 62.735858 106.930973 62.735858 106.930974zM278.727363 1000.892035h-166.739823v-52.106194s0.833699-52.948956 63.361133-106.296637c28.762619 21.667115 103.37869 85.454159 103.37869 158.402831zM637.009558 729.939823c29.596319 21.041841 68.988602 41.684956 68.988601 41.684956 31.472142 9.995327 57.942088 21.250265 80.24354 33.130478-20.425628 11.254938-136.101381 71.07285-278.24708 71.072849-142.145699 0-255.111929-59.401062-277.41338-70.864425 22.093027-11.87115 48.354549-23.343575 79.409841-33.347964 0 0 39.392283-20.634053 68.988601-41.684956 10.212814-7.086442 18.966655-14.38131 24.802549-20.842478 0 0 42.935504 52.106195 104.212389 52.106195s104.212389-52.106195 104.21239-52.106195c5.835894 6.461168 14.589735 13.756035 24.802549 20.842478z" fill="#FFE1B2" p-id="4626"></path><path d="M403.78223 642.809204c30.430018 15.840283 65.445381 24.594124 104.212389 24.594123s73.782372-8.753841 104.21239-24.594123v66.279079S569.271504 761.20354 507.994619 761.20354s-104.212389-52.106195-104.212389-52.106195v-66.27908z" fill="#FFD7A3" p-id="4627"></path><path d="M612.207009 642.809204c-30.430018 15.840283-65.445381 24.594124-104.21239 24.594123s-73.782372-8.753841-104.212389-24.594123c-77.950867-40.225982-125.054867-126.096991-125.054867-225.515611V302.669027s218.846018-10.421239 218.846018-72.948673c0 0 102.961841 72.948673 239.688495 72.948673v114.633628c0 99.418619-47.104 185.289628-125.054867 225.51561z" fill="#FFE1B2" p-id="4628"></path><path d="M820.631788 333.932743s12.922336 226.757097-62.527434 302.21593c0 0 5.835894 30.629381 52.106195 93.79115H637.009558c-10.212814-7.095504-18.966655-14.390372-24.802549-20.842478v-66.288141c77.950867-40.225982 125.054867-126.096991 125.054867-225.515611V302.669027c-136.726655 0-239.688496-72.948673-239.688495-72.948673 0 62.527434-218.846018 72.948673-218.846018 72.948673v114.633628c0 99.418619 47.104 185.289628 125.054867 225.51561v66.27908c-5.835894 6.461168-14.589735 13.756035-24.802549 20.842478H205.77869c46.270301-63.152708 52.106195-93.79115 52.106195-93.79115-75.44977-75.44977-62.527434-302.215929-62.527434-302.21593 0-317.847788 312.637168-312.637168 312.637168-312.637168s312.637168-5.210619 312.637169 312.637168z" fill="#726658" p-id="4629"></path><path d="M851.460531 830.001841l-4.395044-3.778832h-0.317168a322.016283 322.016283 0 0 0-53.157381-35.250974c-24.050407-12.822655-51.471858-24.195398-81.512212-33.819185a782.843469 782.843469 0 0 1-20.89685-11.590231H841.039292L822.824779 720.696637c-30.774372-42.002124-42.808637-68.816425-47.14931-80.578832 71.390018-83.877381 61.358442-292.429027 60.588177-306.629097-0.090619-98.775221-29.442265-177.686655-87.248425-234.54131C653.937274 5.44623 516.830018 5.509664 507.994619 5.654655 499.132035 5.554973 362.042903 5.44623 266.974018 98.947398c-57.815221 56.854655-87.166867 135.766088-87.248425 234.54131-0.317168 5.935575-2.981381 60.551929 3.035752 124.710513 8.019823 85.454159 27.36708 146.576991 57.543363 181.918584-4.37692 11.87115-16.420248 38.667327-47.131186 80.578832l-18.223575 24.865982h149.857416a782.770973 782.770973 0 0 1-20.924036 11.599293c-29.188531 9.487858-56.338124 20.933097-80.741946 34.063858-22.80892 12.351434-41.802761 25.27377-57.933027 39.365097C98.077451 887.862372 96.400991 946.085381 96.355681 948.532106v67.982726h823.277877v-67.792425c-0.009062-2.46485-1.005876-60.950655-68.173027-118.711504z m-578.215646-190.935222l1.540531-8.128566-5.844956-5.844956c-28.200779-28.200779-47.212743-86.786265-55.006018-169.422159-6.071504-64.240142-2.999504-120.297345-2.972318-120.859186l0.027186-0.888071c0-90.166372 26.152779-161.665133 77.724318-212.502654 86.66846-85.417912 217.722336-84.520779 219.027257-84.502655h0.498407c1.295858-0.018124 132.385982-0.906195 219.036319 84.511716 51.580602 50.82846 77.724319 122.318159 77.724318 212.502655l0.027186 0.888071c0.027186 0.552779 3.090124 56.256566-2.927009 120.46046-7.766088 82.844319-26.805239 141.565735-55.042265 169.811823l-5.854018 5.854018 1.540531 8.119504c0.579965 3.008566 5.980885 27.512071 37.51646 75.241346H642.011752a146.649487 146.649487 0 0 1-14.172885-11.599292v-50.620036c37.153982-21.232142 68.073345-52.948956 89.803894-92.268743 23.062655-41.712142 35.250973-90.981947 35.250974-142.517239V287.037168h-15.631859c-129.812389 0-229.665982-69.387327-230.644672-70.076035l-24.675682-17.480496v30.239717c0 12.61423-25.328142 30.937487-96.437239 44.512283-53.012389 10.122195-106.976283 12.795469-107.52 12.822655l-14.888779 0.706832V417.302655c0 51.535292 12.188319 100.814159 35.250974 142.526301 21.739611 39.310726 52.668035 71.02754 89.803894 92.268743v50.620036c-3.824142 3.615717-8.645097 7.566726-14.172885 11.599292H235.737487c31.526513-47.738336 36.927434-72.232779 37.507398-75.241346z m331.739752-10.122194c-29.08885 15.151575-61.729982 22.836106-96.990018 22.836106-35.250973 0-67.892106-7.684531-96.999079-22.836106l-0.04531-0.027186c-35.405027-18.268885-64.88354-47.393982-85.245734-84.230797-20.507186-37.090549-31.345274-81.140673-31.345275-127.392849V317.331257c20.235327-1.495221 58.232071-5.011257 96.71816-12.342372 62.074336-11.825841 100.052956-28.771681 114.92361-51.435611 34.018549 20.090336 114.434265 60.560991 215.629027 64.430443v99.318938c0 46.243115-10.838088 90.293239-31.345275 127.383787-20.362195 36.836814-49.840708 65.970973-85.300106 84.257983z m-185.570549 38.042053c27.475823 10.647788 57.153699 16.048708 88.580531 16.048708s61.122832-5.409982 88.580531-16.048708v36.084672c-10.693097 11.173381-44.575717 42.500531-88.580531 42.500531-43.723894 0-77.842124-31.381522-88.580531-42.536778v-36.048425zM314.78485 786.486372s43.134867-22.401133 73.102725-43.723894a210.327788 210.327788 0 0 0 15.387186-11.689912c18.033274 16.963965 55.821593 45.744708 104.719858 45.744708 48.898265 0 86.686584-28.780743 104.719859-45.744708a206.703009 206.703009 0 0 0 15.233133 11.59023c30.121912 21.422442 73.31115 43.841699 73.31115 43.8417 17.552991 5.582159 34.109168 11.780531 49.52354 18.504495-45.572531 20.969345-136.23731 55.187257-242.787682 55.187257-79.727009 0-162.734442-19.048212-241.754619-55.259752a491.248142 491.248142 0 0 1 48.54485-18.450124z m-83.859257 36.175292c89.640779 45.019752 185.289628 68.789239 277.069026 68.789239 133.53685 0 243.494513-50.946265 278.138337-68.925168a293.869876 293.869876 0 0 1 29.859115 19.374442c-34.109168 28.662938-85.635398 81.403469-93.356177 143.341876H293.335221c-3.751646-30.203469-18.250761-61.267823-43.316106-92.567788-16.719292-20.869664-35.205664-38.105487-49.641345-50.221309a307.018761 307.018761 0 0 1 30.538761-19.791292z m-103.306195 126.368849c0.135929-3.035752 2.736708-42.554903 48.427044-86.133805 26.723681 21.775858 77.008425 69.115469 85.707894 122.345345H127.619398v-36.21154z m760.750443 36.21154h-134.116814c8.762903-53.229876 59.401062-101.031646 86.215362-122.997805 46.415292 44.584779 47.865204 84.910442 47.901452 86.523469v36.474336z" fill="#231F20" p-id="4630"></path><path d="M523.626478 438.145133h-31.263717v83.369911c0 8.626973 6.995823 15.622796 15.631858 15.622797h41.684956v-31.263717h-26.053097V438.145133z" fill="#231F20" p-id="4631"></path></svg>